<svg width="146" height="44" viewBox="0 0 146 44" fill="none" xmlns="http://www.w3.org/2000/svg">
<path d="M8.93786 18.8868C7.82654 18.3312 7.07408 17.5208 6.76152 16.3516C6.54157 15.5413 6.53 14.7194 6.91201 13.9785C7.72235 12.3694 8.59057 10.795 9.64401 9.32484C10.2575 8.44504 11.1952 8.01672 12.2718 8.00515C16.1962 7.99357 20.1205 8.00515 24.0564 8.00515C26.1981 8.00515 28.3744 9.62582 29.0342 11.6632C29.8098 14.0943 29.2079 16.3516 27.2052 17.9376C26.5569 18.4469 26.2675 18.8868 26.1517 19.7319C25.8739 21.8735 24.6584 23.4131 22.6094 24.2466C21.9727 24.5129 21.3013 24.5823 20.6067 24.5823C16.0804 24.5823 11.5541 24.5823 7.02777 24.5823C6.17113 24.5823 5.31449 24.6518 4.50415 24.9759C4.11056 25.1264 4.01795 24.9296 4.00637 24.5823C3.87903 22.1166 5.83542 19.593 8.25486 19.1068C8.47481 19.0605 8.69475 19.0257 8.94943 18.8868H8.93786ZM17.7127 18.9216C19.7848 18.9216 21.8685 18.9216 23.9407 18.9216C24.4732 18.9216 24.9594 18.7711 25.4687 18.6553C25.8971 18.5511 25.9781 18.2849 25.8855 17.8797C25.3877 15.5992 23.3734 13.7701 21.0466 13.6891C18.6851 13.5965 16.3119 13.6659 13.9388 13.6659C13.7073 13.6659 13.5452 13.747 13.4294 13.9553C12.596 15.4139 11.7393 16.8726 10.9058 18.3427C10.5933 18.8984 10.6048 18.9216 11.23 18.9216C13.3831 18.9216 15.5479 18.9216 17.7011 18.9216H17.7127Z" fill="#01193B"/>
<path d="M9.50508 35.5798C7.1551 35.5798 4.80512 35.5798 2.45514 35.5798C1.80687 35.5798 1.2049 35.6955 0.602937 35.9155C0.105158 36.0891 0.0125483 36.0197 0.000972041 35.4756C-0.0569092 32.5236 2.47829 29.9305 5.43024 29.9305C10.0376 29.9305 14.6449 29.9305 19.2407 29.9305C20.0742 29.9305 20.8961 29.8495 21.6717 29.5601C22.1 29.398 22.1811 29.5948 22.1927 29.9653C22.2968 32.2458 20.6067 34.6305 18.4072 35.3019C17.7474 35.4987 17.0875 35.6029 16.3929 35.6029C14.0893 35.5798 11.7856 35.6029 9.48192 35.6029L9.50508 35.5798Z" fill="#00A9B4"/>
<path d="M51.6529 23.1134C52.1637 23.8489 52.4191 24.7173 52.4191 25.7082C52.4191 27.3223 51.8368 28.5686 50.662 29.4573C49.4974 30.3359 47.914 30.7854 45.9321 30.7854H37.3612L38.7505 13.0101H46.6881C48.6189 13.0101 50.1001 13.4085 51.1115 14.2156C52.1331 15.0226 52.6336 16.1055 52.6336 17.4642C52.6336 19.446 51.5814 20.8353 49.477 21.6219C50.3964 21.8773 51.1217 22.3677 51.6325 23.1134H51.6529ZM48.0059 27.2406C48.5065 26.883 48.7619 26.2905 48.7619 25.463C48.7619 24.7275 48.5269 24.1656 48.0672 23.7979C47.6075 23.4301 46.8822 23.2462 45.9117 23.2462H41.805L41.4475 27.782H45.6052C46.6983 27.782 47.4951 27.5981 47.9957 27.2406H48.0059ZM48.0979 19.7218C48.5882 19.3745 48.8436 18.8228 48.8436 18.0465C48.8436 16.6878 47.914 16.0033 46.0752 16.0033H42.3669L42.04 20.2428H45.7687C46.8311 20.2428 47.6075 20.0692 48.0979 19.7218Z" fill="#01193B"/>
<path d="M64.2667 19.6198C65.2577 20.6413 65.7582 22.1022 65.7582 24.0227C65.7582 24.4313 65.7378 24.8502 65.6867 25.3099H57.647C57.8002 27.1896 58.832 28.1294 60.7526 28.1294C62.0091 28.1294 63.2145 27.731 64.3587 26.924L65.1657 29.4677C64.6243 29.9376 63.9398 30.3053 63.1022 30.5812C62.2645 30.8468 61.3859 30.9796 60.4767 30.9796C59.1793 30.9796 58.0454 30.7242 57.0749 30.2236C56.1044 29.723 55.3383 29.0079 54.807 28.0885C54.2656 27.1691 54 26.1067 54 24.9013C54 23.5732 54.2758 22.3882 54.8173 21.3564C55.3587 20.3246 56.1146 19.5176 57.0647 18.9455C58.0148 18.3734 59.0874 18.0874 60.2826 18.0874C61.9682 18.0874 63.2963 18.5982 64.2872 19.6095L64.2667 19.6198ZM57.7083 23.4098H62.6016C62.6016 22.5006 62.4075 21.8263 62.0091 21.3768C61.6107 20.9274 61.0692 20.7128 60.3848 20.7128C58.8933 20.7128 57.9943 21.6118 57.7083 23.4098Z" fill="#01193B"/>
<path d="M67 29.4676L68.2361 26.8421C68.9205 27.2916 69.6663 27.6492 70.4529 27.9046C71.2395 28.16 72.0261 28.2826 72.8025 28.2826C73.4563 28.2826 73.9364 28.1906 74.2531 28.0067C74.5698 27.8228 74.723 27.5777 74.723 27.2712C74.723 26.9137 74.5289 26.648 74.151 26.4642C73.773 26.2803 73.16 26.0555 72.3224 25.8104C71.4336 25.5754 70.6981 25.3302 70.1158 25.0748C69.5335 24.8194 69.0329 24.4517 68.6141 23.9613C68.1952 23.471 67.9807 22.8478 67.9807 22.0714C67.9807 21.295 68.2157 20.6106 68.6754 20.0079C69.1351 19.4051 69.7787 18.9352 70.6061 18.5981C71.4336 18.261 72.3734 18.0975 73.4257 18.0975C74.3655 18.0975 75.2849 18.2406 76.1737 18.5164C77.0624 18.7922 77.8082 19.1702 78.4211 19.6401L77.2157 22.1634C76.6129 21.7139 75.9796 21.3665 75.3258 21.1418C74.672 20.9171 74.0182 20.8047 73.3541 20.8047C72.6901 20.8047 72.2304 20.8966 71.8933 21.0805C71.5562 21.2644 71.3927 21.53 71.3927 21.8671C71.3927 22.2247 71.5868 22.4903 71.9648 22.6844C72.3428 22.8785 72.9557 23.093 73.7934 23.328C74.6822 23.5629 75.4177 23.8081 76 24.0635C76.5823 24.3189 77.0829 24.6866 77.5017 25.177C77.9205 25.6673 78.1351 26.2905 78.1351 27.0669C78.1351 28.2928 77.6549 29.253 76.6845 29.9579C75.714 30.6628 74.4064 30.9999 72.7412 30.9999C70.6368 30.9999 68.7367 30.4993 67.0204 29.488L67 29.4676Z" fill="#01193B"/>
<path d="M85.7719 25.9125C85.6493 27.4244 86.3133 28.1803 87.7333 28.1803C88.0499 28.1803 88.4381 28.1599 88.8978 28.1088L88.4688 30.8568C87.9784 30.9386 87.5085 30.9794 87.059 30.9794C85.3632 30.9794 84.0863 30.6117 83.2282 29.8659C82.37 29.1304 81.941 28.0373 81.941 26.5867C81.941 26.2802 81.941 26.0555 81.9614 25.9022L82.3394 21.2337H80L80.2247 18.3835H82.5743L82.8502 14.757H86.6606L86.3848 18.3835H89.4904L89.286 21.2337H86.16L85.7821 25.9022L85.7719 25.9125Z" fill="#01193B"/>
<path d="M101.563 18.8638C102.36 19.3439 102.983 20.0284 103.412 20.9274C103.851 21.8263 104.066 22.8785 104.066 24.0942C104.066 25.4427 103.821 26.6277 103.33 27.6697C102.84 28.7117 102.156 29.5187 101.267 30.101C100.378 30.6833 99.3564 30.9694 98.2123 30.9694C97.3031 30.9694 96.5165 30.7855 95.8422 30.4177C95.168 30.0499 94.6368 29.5187 94.2588 28.8343L94.1056 30.7753H91L92.3893 13H95.546L94.9637 20.0386C95.3621 19.4359 95.9035 18.9659 96.588 18.639C97.2724 18.3121 98.0079 18.1487 98.815 18.1487C99.8365 18.1487 100.756 18.3837 101.553 18.8638H101.563ZM100.051 27.3837C100.633 26.6175 100.919 25.5755 100.919 24.2474C100.919 23.0726 100.654 22.1634 100.112 21.5199C99.5709 20.8865 98.8048 20.5596 97.8139 20.5596C96.8229 20.5596 96.0363 20.9478 95.454 21.7242C94.8717 22.5006 94.5857 23.5426 94.5857 24.8502C94.5857 26.0556 94.8513 26.975 95.3825 27.5982C95.9137 28.2213 96.6697 28.5278 97.6606 28.5278C98.6515 28.5278 99.4586 28.1498 100.041 27.3837H100.051Z" fill="#01193B"/>
<path d="M116.011 19.2623C116.798 20.008 117.196 21.142 117.196 22.6539C117.196 22.991 117.196 23.2464 117.176 23.4405L116.594 30.7753H113.59L113.743 29.008C113.386 29.6516 112.916 30.1317 112.303 30.4689C111.7 30.806 111.016 30.9694 110.26 30.9694C109.432 30.9694 108.697 30.8162 108.053 30.4995C107.41 30.193 106.899 29.764 106.541 29.2123C106.184 28.6709 106 28.0477 106 27.3633C106 26.4235 106.245 25.6675 106.715 25.1056C107.185 24.5438 107.961 24.1351 109.024 23.8695C110.086 23.6141 111.496 23.4813 113.263 23.4813H114.173L114.203 23.0012C114.275 22.1635 114.121 21.5404 113.754 21.1317C113.386 20.7231 112.763 20.529 111.884 20.529C111.261 20.529 110.597 20.6414 109.882 20.8661C109.167 21.0909 108.472 21.4076 107.798 21.8162L107.093 19.6505C107.747 19.201 108.564 18.8332 109.535 18.5574C110.505 18.2816 111.465 18.1385 112.405 18.1385C114.019 18.1385 115.225 18.5165 116.011 19.2623ZM113.069 27.8741C113.611 27.3224 113.917 26.5971 113.989 25.7084L114.04 25.1567H113.335C112.221 25.1567 111.363 25.218 110.75 25.3508C110.137 25.4734 109.708 25.6777 109.453 25.9433C109.197 26.2089 109.075 26.5869 109.075 27.0568C109.075 27.5574 109.259 27.966 109.616 28.2623C109.974 28.5687 110.464 28.7118 111.067 28.7118C111.854 28.7118 112.528 28.4359 113.069 27.8843V27.8741Z" fill="#01193B"/>
<path d="M130.084 19.2622C130.799 20.008 131.157 21.1113 131.157 22.5823C131.157 22.899 131.157 23.1442 131.136 23.3178L130.533 30.7855H127.387L127.99 23.4506C128.123 21.5812 127.387 20.6516 125.773 20.6516C124.854 20.6516 124.128 20.9274 123.607 21.479C123.086 22.0307 122.78 22.8071 122.698 23.798L122.146 30.7855H119L119.96 18.4552H123.035L122.913 20.0693C123.331 19.4665 123.893 18.9966 124.598 18.6595C125.303 18.3224 126.09 18.1589 126.968 18.1589C128.347 18.1589 129.389 18.5369 130.104 19.2827L130.084 19.2622Z" fill="#01193B"/>
<path d="M139.957 24.4007L145.351 30.7753H141.489L136.596 25.0749L136.146 30.7753H133L134.389 13H137.536L136.678 23.8388L142.02 18.4654H145.902L139.947 24.3905L139.957 24.4007Z" fill="#01193B"/>
</svg>
