<svg width="16" height="16" viewBox="0 0 16 16" fill="none" xmlns="http://www.w3.org/2000/svg">
<path d="M4.87024 6.30373C4.26464 6.00093 3.8546 5.55934 3.68428 4.9222C3.56442 4.48062 3.55811 4.03273 3.76628 3.629C4.20787 2.75214 4.68099 1.8942 5.25505 1.09305C5.58939 0.613614 6.10037 0.380206 6.68704 0.373897C8.82556 0.367589 10.9641 0.373897 13.1089 0.373897C14.276 0.373897 15.4619 1.25706 15.8215 2.36733C16.2442 3.69208 15.9161 4.9222 14.8248 5.78644C14.4715 6.06401 14.3138 6.30373 14.2507 6.76424C14.0993 7.93128 13.437 8.77028 12.3204 9.22448C11.9734 9.36958 11.6075 9.40743 11.229 9.40743C8.76248 9.40743 6.29592 9.40743 3.82937 9.40743C3.36255 9.40743 2.89573 9.44528 2.45415 9.62191C2.23967 9.70392 2.1892 9.59668 2.18289 9.40743C2.1135 8.06375 3.17961 6.68854 4.49805 6.42359C4.61791 6.39835 4.73777 6.37943 4.87655 6.30373H4.87024ZM9.65196 6.32265C10.7811 6.32265 11.9166 6.32265 13.0458 6.32265C13.336 6.32265 13.601 6.24064 13.8785 6.17756C14.1119 6.12079 14.1561 5.97569 14.1056 5.7549C13.8344 4.51216 12.7367 3.51545 11.4688 3.47129C10.1819 3.42082 8.88865 3.45867 7.59544 3.45867C7.46927 3.45867 7.38096 3.50283 7.31787 3.61638C6.86367 4.41123 6.39686 5.20608 5.94266 6.00724C5.77233 6.31004 5.77864 6.32265 6.11929 6.32265C7.29264 6.32265 8.4723 6.32265 9.64565 6.32265H9.65196Z" fill="#01193B"/>
<path d="M5.17967 15.4004C3.89908 15.4004 2.61849 15.4004 1.3379 15.4004C0.984629 15.4004 0.656596 15.4635 0.328563 15.5833C0.0573047 15.678 0.00683803 15.6401 0.000529701 15.3436C-0.0310119 13.735 1.35051 12.3219 2.95914 12.3219C5.46985 12.3219 7.98057 12.3219 10.485 12.3219C10.9392 12.3219 11.3871 12.2778 11.8097 12.1201C12.0431 12.0317 12.0873 12.139 12.0936 12.3408C12.1504 13.5836 11.2294 14.8831 10.0308 15.249C9.6712 15.3562 9.31162 15.413 8.93312 15.413C7.67777 15.4004 6.42241 15.413 5.16705 15.413L5.17967 15.4004Z" fill="#00A9B4"/>
</svg>
