<svg width="150" height="60" viewBox="0 0 150 60" fill="none" xmlns="http://www.w3.org/2000/svg">
<path d="M9.36475 26.7382C8.20032 26.156 7.4119 25.3069 7.0844 24.0818C6.85394 23.2328 6.84181 22.3716 7.24208 21.5953C8.09115 19.9093 9.00086 18.2597 10.1047 16.7192C10.7475 15.7974 11.73 15.3486 12.8581 15.3364C16.97 15.3243 21.0819 15.3364 25.2059 15.3364C27.4499 15.3364 29.7302 17.0346 30.4216 19.1694C31.2343 21.7166 30.6036 24.0818 28.5052 25.7436C27.8259 26.2773 27.5227 26.7382 27.4014 27.6237C27.1103 29.8676 25.8367 31.4808 23.6897 32.3542C23.0226 32.6332 22.3191 32.7059 21.5913 32.7059C16.8487 32.7059 12.106 32.7059 7.36338 32.7059C6.46579 32.7059 5.56821 32.7787 4.71914 33.1183C4.30674 33.276 4.2097 33.0698 4.19757 32.7059C4.06415 30.1223 6.11404 27.4781 8.64911 26.9687C8.87957 26.9201 9.11003 26.8838 9.37688 26.7382H9.36475ZM18.5589 26.7746C20.7301 26.7746 22.9134 26.7746 25.0846 26.7746C25.6426 26.7746 26.152 26.6169 26.6857 26.4956C27.1345 26.3864 27.2194 26.1075 27.1224 25.6829C26.6008 23.2934 24.4903 21.377 22.0522 21.292C19.5778 21.195 17.0913 21.2678 14.6047 21.2678C14.3621 21.2678 14.1923 21.3527 14.071 21.571C13.1977 23.0993 12.3001 24.6277 11.4268 26.1681C11.0993 26.7503 11.1114 26.7746 11.7664 26.7746C14.0225 26.7746 16.2907 26.7746 18.5468 26.7746H18.5589Z" fill="#01193B"/>
<path d="M9.95936 44.2287C7.49707 44.2287 5.03477 44.2287 2.57248 44.2287C1.89322 44.2287 1.26249 44.35 0.631754 44.5804C0.110184 44.7624 0.013148 44.6896 0.0010185 44.1195C-0.0596291 41.0265 2.59674 38.3094 5.68977 38.3094C10.5173 38.3094 15.3449 38.3094 20.1603 38.3094C21.0336 38.3094 21.8948 38.2245 22.7075 37.9213C23.1563 37.7515 23.2412 37.9577 23.2533 38.3458C23.3625 40.7354 21.5916 43.234 19.287 43.9375C18.5956 44.1437 17.9042 44.2529 17.1764 44.2529C14.7627 44.2287 12.3489 44.2529 9.9351 44.2529L9.95936 44.2287Z" fill="#00A9B4"/>
<path d="M50.7404 31.1672C51.2756 31.9379 51.5432 32.8477 51.5432 33.886C51.5432 35.5772 50.9331 36.8831 49.7021 37.8144C48.4819 38.7349 46.8228 39.2059 44.7462 39.2059H35.7656L37.2214 20.5811H45.5383C47.5613 20.5811 49.1134 20.9985 50.1731 21.8441C51.2435 22.6897 51.768 23.8243 51.768 25.248C51.768 27.3245 50.6655 28.7803 48.4605 29.6045C49.4238 29.872 50.1838 30.3858 50.719 31.1672H50.7404ZM46.9191 35.4916C47.4436 35.117 47.7112 34.4961 47.7112 33.6291C47.7112 32.8584 47.465 32.2697 46.9833 31.8844C46.5016 31.499 45.7417 31.3064 44.7248 31.3064H40.4218L40.0472 36.0589H44.4037C45.549 36.0589 46.3839 35.8662 46.9084 35.4916H46.9191ZM47.0154 27.6135C47.5292 27.2496 47.7968 26.6716 47.7968 25.8581C47.7968 24.4345 46.8228 23.7173 44.8961 23.7173H41.0105L40.668 28.1594H44.5749C45.6881 28.1594 46.5016 27.9775 47.0154 27.6135Z" fill="#01193B"/>
<path d="M64.3141 27.507C65.3524 28.5773 65.8768 30.108 65.8768 32.1203C65.8768 32.5485 65.8554 32.9874 65.8019 33.469H57.3779C57.5385 35.4386 58.6196 36.4233 60.6319 36.4233C61.9485 36.4233 63.2116 36.0059 64.4104 35.1603L65.256 37.8255C64.6887 38.3179 63.9715 38.7032 63.0938 38.9923C62.2161 39.2706 61.2956 39.4097 60.3429 39.4097C58.9835 39.4097 57.7954 39.1421 56.7785 38.6176C55.7616 38.0931 54.9589 37.3439 54.4023 36.3805C53.8349 35.4171 53.5566 34.3039 53.5566 33.0409C53.5566 31.6494 53.8456 30.4077 54.413 29.3266C54.9803 28.2455 55.7724 27.3999 56.7678 26.8005C57.7633 26.2011 58.8872 25.9014 60.1395 25.9014C61.9057 25.9014 63.2972 26.4366 64.3355 27.4962L64.3141 27.507ZM57.4422 31.4781H62.5693C62.5693 30.5255 62.366 29.819 61.9485 29.348C61.5311 28.8771 60.9637 28.6523 60.2466 28.6523C58.6838 28.6523 57.7419 29.5942 57.4422 31.4781Z" fill="#01193B"/>
<path d="M66.9785 37.8246L68.2737 35.0737C68.9909 35.5447 69.7722 35.9193 70.5964 36.1869C71.4206 36.4545 72.2448 36.5829 73.0583 36.5829C73.7434 36.5829 74.2465 36.4866 74.5783 36.2939C74.9101 36.1013 75.0707 35.8444 75.0707 35.5232C75.0707 35.1486 74.8673 34.8703 74.4713 34.6776C74.0752 34.485 73.433 34.2495 72.5553 33.9926C71.624 33.7464 70.8533 33.4895 70.2432 33.2219C69.6331 32.9543 69.1086 32.569 68.6697 32.0552C68.2309 31.5414 68.0061 30.8885 68.0061 30.075C68.0061 29.2615 68.2523 28.5443 68.734 27.9128C69.2156 27.2812 69.89 26.7889 70.757 26.4356C71.624 26.0824 72.6088 25.9111 73.7113 25.9111C74.696 25.9111 75.6594 26.061 76.5906 26.35C77.5219 26.639 78.3033 27.035 78.9455 27.5274L77.6824 30.1713C77.0509 29.7003 76.3873 29.3364 75.7022 29.1009C75.0172 28.8654 74.3321 28.7477 73.6363 28.7477C72.9406 28.7477 72.4589 28.844 72.1057 29.0367C71.7525 29.2293 71.5812 29.5076 71.5812 29.8609C71.5812 30.2355 71.7846 30.5138 72.1806 30.7172C72.5767 30.9206 73.2189 31.1453 74.0966 31.3915C75.0279 31.6377 75.7985 31.8946 76.4087 32.1622C77.0188 32.4298 77.5433 32.8152 77.9821 33.3289C78.421 33.8427 78.6458 34.4957 78.6458 35.3092C78.6458 36.5936 78.1427 37.5998 77.1258 38.3384C76.109 39.0769 74.7389 39.4302 72.9941 39.4302C70.7891 39.4302 68.7982 38.9057 66.9999 37.846L66.9785 37.8246Z" fill="#01193B"/>
<path d="M85.8934 34.0998C85.765 35.684 86.4607 36.4761 87.9486 36.4761C88.2804 36.4761 88.6871 36.4547 89.1688 36.4011L88.7192 39.2805C88.2055 39.3661 87.7131 39.4089 87.2421 39.4089C85.4653 39.4089 84.1273 39.0236 83.2281 38.2422C82.329 37.4715 81.8794 36.3262 81.8794 34.8063C81.8794 34.4851 81.8794 34.2497 81.9009 34.0891L82.2969 29.1974H79.8457L80.0812 26.211H82.5431L82.8321 22.4111H86.8246L86.5356 26.211H89.7896L89.5756 29.1974H86.3002L85.9041 34.0891L85.8934 34.0998Z" fill="#01193B"/>
<path d="M101.947 26.7144C102.782 27.2174 103.435 27.9346 103.884 28.8765C104.344 29.8185 104.569 30.921 104.569 32.1948C104.569 33.6077 104.312 34.8493 103.799 35.9411C103.285 37.0329 102.568 37.8785 101.636 38.4887C100.705 39.0988 99.6347 39.3985 98.4359 39.3985C97.4832 39.3985 96.659 39.2058 95.9526 38.8205C95.2461 38.4351 94.6895 37.8785 94.2935 37.1614L94.1329 39.1951H90.8789L92.3346 20.5703H95.6422L95.032 27.9453C95.4495 27.3138 96.0168 26.8214 96.7339 26.4789C97.4511 26.1363 98.2218 25.9651 99.0674 25.9651C100.138 25.9651 101.101 26.2113 101.936 26.7144H101.947ZM100.363 35.6414C100.973 34.8386 101.272 33.7468 101.272 32.3553C101.272 31.1244 100.994 30.1717 100.427 29.4974C99.8595 28.8337 99.0567 28.4912 98.0184 28.4912C96.9801 28.4912 96.1559 28.898 95.5458 29.7115C94.9357 30.5249 94.636 31.6167 94.636 32.9868C94.636 34.2499 94.9143 35.2133 95.4709 35.8662C96.0275 36.5191 96.8196 36.8403 97.8579 36.8403C98.8961 36.8403 99.7418 36.4442 100.352 35.6414H100.363Z" fill="#01193B"/>
<path d="M117.072 27.1325C117.896 27.9139 118.314 29.102 118.314 30.6862C118.314 31.0394 118.314 31.307 118.292 31.5104L117.682 39.1958H114.535L114.696 37.344C114.321 38.0184 113.829 38.5215 113.186 38.8747C112.555 39.2279 111.838 39.3992 111.046 39.3992C110.179 39.3992 109.408 39.2386 108.734 38.9068C108.059 38.5857 107.524 38.1361 107.149 37.5581C106.775 36.9908 106.582 36.3379 106.582 35.6207C106.582 34.636 106.839 33.8439 107.331 33.2551C107.824 32.6664 108.637 32.2383 109.75 31.96C110.864 31.6924 112.341 31.5532 114.193 31.5532H115.145L115.177 31.0501C115.252 30.1724 115.092 29.5195 114.706 29.0913C114.321 28.6632 113.668 28.4598 112.747 28.4598C112.095 28.4598 111.399 28.5775 110.65 28.813C109.9 29.0485 109.172 29.3803 108.466 29.8085L107.727 27.5393C108.412 27.0683 109.269 26.6829 110.286 26.3939C111.302 26.1049 112.309 25.9551 113.293 25.9551C114.985 25.9551 116.248 26.3511 117.072 27.1325ZM113.989 36.1559C114.556 35.5779 114.878 34.8179 114.952 33.8867L115.006 33.3087H114.267C113.101 33.3087 112.202 33.3729 111.559 33.512C110.917 33.6405 110.468 33.8546 110.2 34.1329C109.932 34.4112 109.804 34.8072 109.804 35.2996C109.804 35.8241 109.997 36.2522 110.371 36.5627C110.746 36.8838 111.26 37.0336 111.891 37.0336C112.715 37.0336 113.422 36.7446 113.989 36.1666V36.1559Z" fill="#01193B"/>
<path d="M132.668 27.1326C133.418 27.914 133.792 29.07 133.792 30.6114C133.792 30.9432 133.792 31.2001 133.771 31.382L133.139 39.2066H129.843L130.474 31.5212C130.613 29.5624 129.843 28.5883 128.151 28.5883C127.188 28.5883 126.428 28.8773 125.882 29.4553C125.336 30.0333 125.015 30.8468 124.93 31.8851L124.351 39.2066H121.055L122.061 26.287H125.283L125.154 27.9782C125.593 27.3467 126.182 26.8543 126.92 26.5011C127.659 26.1478 128.483 25.9766 129.404 25.9766C130.849 25.9766 131.941 26.3726 132.69 27.154L132.668 27.1326Z" fill="#01193B"/>
<path d="M143.78 32.5159L149.431 39.1951H145.385L140.258 33.2223L139.787 39.1951H136.49L137.946 20.5703H141.243L140.344 31.9272L145.942 26.2969H150.009L143.769 32.5052L143.78 32.5159Z" fill="#01193B"/>
</svg>
