<svg width="30" height="30" viewBox="0 0 30 30" fill="none" xmlns="http://www.w3.org/2000/svg">
<path d="M9.13268 11.819C7.99718 11.2513 7.22835 10.4233 6.90899 9.22864C6.68426 8.40067 6.67243 7.56088 7.06276 6.80388C7.89073 5.15977 8.77784 3.55115 9.8542 2.04897C10.4811 1.15004 11.4392 0.712398 12.5392 0.700569C16.5489 0.688741 20.5586 0.700569 24.5802 0.700569C26.7684 0.700569 28.9921 2.35651 29.6663 4.43825C30.4588 6.92216 29.8437 9.22864 27.7975 10.8491C27.1351 11.3695 26.8394 11.819 26.7211 12.6825C26.4372 14.8707 25.1953 16.4438 23.1017 17.2954C22.4511 17.5675 21.7651 17.6384 21.0554 17.6384C16.4306 17.6384 11.8058 17.6384 7.18104 17.6384C6.30576 17.6384 5.43048 17.7094 4.60251 18.0406C4.20036 18.1944 4.10573 17.9933 4.0939 17.6384C3.96379 15.119 5.96275 12.5405 8.43482 12.0437C8.65956 11.9964 8.88429 11.9609 9.14451 11.819H9.13268ZM18.0984 11.8545C20.2156 11.8545 22.3447 11.8545 24.4619 11.8545C25.006 11.8545 25.5028 11.7007 26.0232 11.5824C26.4609 11.476 26.5437 11.2039 26.449 10.79C25.9404 8.45981 23.8823 6.59097 21.5049 6.50818C19.092 6.41355 16.6672 6.48452 14.2424 6.48452C14.0059 6.48452 13.8403 6.56732 13.722 6.78022C12.8704 8.27057 11.9951 9.76091 11.1435 11.2631C10.8241 11.8308 10.8359 11.8545 11.4746 11.8545C13.6747 11.8545 15.8865 11.8545 18.0866 11.8545H18.0984Z" fill="#01193B"/>
<path d="M9.71188 28.8751C7.31077 28.8751 4.90966 28.8751 2.50855 28.8751C1.84618 28.8751 1.23112 28.9934 0.616055 29.2181C0.107446 29.3956 0.0128213 29.3246 0.00099319 28.7687C-0.0581474 25.7525 2.53221 23.103 5.54838 23.103C10.256 23.103 14.9636 23.103 19.6593 23.103C20.511 23.103 21.3507 23.0202 22.1432 22.7245C22.5809 22.5589 22.6637 22.76 22.6755 23.1385C22.7819 25.4686 21.055 27.9052 18.8077 28.5912C18.1335 28.7923 17.4593 28.8988 16.7496 28.8988C14.3958 28.8751 12.042 28.8988 9.68822 28.8988L9.71188 28.8751Z" fill="#00A9B4"/>
</svg>
